<svg xmlns="http://www.w3.org/2000/svg" width="73.181" height="73.421" viewBox="0 0 73.181 73.421">
  <g id="Group_2840" data-name="Group 2840" opacity="0.5">
    <path id="Path_1070" data-name="Path 1070" d="M1153.1,690l6.29,8.862c-2.524,1.692-5.023,3.189-7.295,4.923-5.6,4.27-8.228,10.036-9.564,16.286a112.927,112.927,0,0,0-1.646,11.681c-.235,2.2.341,2.635,2.8,2.648,4.749.025,9.5.008,14.44.008v28.039h-30.83a10.784,10.784,0,0,1-.2-1.474c.013-10.959-.082-21.92.116-32.876a45.547,45.547,0,0,1,3.985-18.306C1135.389,700.6,1142.879,694.321,1153.1,690Z" transform="translate(-1127.079 -690)" fill="#faf4ed"/>
    <path id="Path_1071" data-name="Path 1071" d="M1247.4,689.856l6.289,8.863c-2.524,1.69-5.023,3.188-7.294,4.922-5.6,4.27-8.228,10.036-9.565,16.286a113.305,113.305,0,0,0-1.646,11.682c-.235,2.2.341,2.635,2.8,2.648,4.749.025,9.5.007,14.439.007V762.3H1221.6a10.776,10.776,0,0,1-.2-1.474c.013-10.958-.082-21.919.115-32.876a45.552,45.552,0,0,1,3.986-18.305C1229.694,700.458,1237.184,694.177,1247.4,689.856Z" transform="translate(-1180.51 -688.882)" fill="#faf4ed"/>
  </g>
</svg>
